<?xml version="1.0" encoding="UTF-8"?>
<svg id="Layer_1" data-name="Layer 1" xmlns="http://www.w3.org/2000/svg" viewBox="0 0 629.31 408.77">
  <defs>
    <style>
      .cls-1 {
        fill: #666868;
      }

      .cls-1, .cls-2, .cls-3 {
        stroke-width: 0px;
      }

      .cls-2 {
        fill: #231f20;
      }

      .cls-3 {
        fill: #be1e2d;
      }
    </style>
  </defs>
  <g>
    <g>
      <path class="cls-2" d="m96.57,229.78h-35.64v-126.5h35.64v12.32h-23.32v65.78h16.5v12.32h-16.5v23.76h23.32v12.32Z"/>
      <path class="cls-2" d="m158.16,103.28l-16.06,63.14,16.06,63.14h-12.32l-9.9-38.5-9.68,38.5h-12.32l16.06-63.14-16.06-63.14h12.32l9.9,38.5,9.68-38.5h12.32Z"/>
      <path class="cls-2" d="m207.44,229.78h-35.64v-126.5h35.64v12.32h-23.32v65.78h16.5v12.32h-16.5v23.76h23.32v12.32Z"/>
      <path class="cls-2" d="m266.4,134.3l-12.32,14.52v-29.92c-.15-.29-.3-.55-.44-.77-.15-.22-.3-.47-.44-.77-.3-.44-.71-.8-1.23-1.1-.52-.29-.93-.51-1.23-.66h-10.27c-.3.15-.56.26-.78.33-.22.08-.48.19-.78.33l-1.12,1.1c-.15.3-.3.55-.44.77-.15.22-.22.48-.22.77v95.47c0,.44.41,1.07,1.22,1.88.82.81,1.52,1.21,2.12,1.21h10.25c.59,0,1.26-.41,2-1.22.74-.81,1.12-1.51,1.12-2.1v-20.35l12.54-15.71v36.74c0,.88-.29,2.09-.88,3.63-.59,1.54-1.03,2.46-1.32,2.75-1.62,2.35-3.23,4.11-4.84,5.28-1.62,1.18-3.19,2.02-4.73,2.53-1.54.52-3.05.77-4.51.77h-4.4c-2.79,0-5.5-.14-8.14-.44-2.64-.29-5.5-1.98-8.58-5.06-.88-1.17-1.54-2.2-1.98-3.08-.3-.58-.74-1.61-1.32-3.08-.59-1.46-.88-2.56-.88-3.3v-96.58c0-.29.07-.66.22-1.1.14-.44.22-.8.22-1.1.14-1.46.72-2.97,1.73-4.51,1.01-1.54,2.16-2.89,3.46-4.07,1.3-1.17,2.67-2.12,4.11-2.86,1.44-.73,2.74-1.1,3.9-1.1.15,0,.33-.03.55-.11.22-.07.48-.11.78-.11.89-.14,1.99-.18,3.33-.11,1.33.08,2.15.11,2.44.11h5.77c2.51,0,5.21.99,8.1,2.97,2.88,1.98,4.84,4.51,5.88,7.59.29.44.55,1.21.77,2.31.22,1.1.33,1.8.33,2.09v16.06Z"/>
      <path class="cls-2" d="m325.8,229.78h-26.04c-.3,0-.92-.14-1.86-.44-.95-.29-1.78-.51-2.51-.66-2.92-.88-5.4-2.86-7.44-5.94s-3.06-5.86-3.06-8.36v-111.32h12.32v111.1c0,.59.44,1.25,1.32,1.98.88.74,1.54,1.1,1.98,1.1h12.98v-114.18h12.32v126.72Z"/>
      <path class="cls-2" d="m380.58,115.38h-14.3v114.18h-12.32v-114.18h-14.52v-12.32h41.14v12.32Z"/>
      <path class="cls-2" d="m402.57,229.12h-12.32v-126.28h12.32v126.28Z"/>
      <path class="cls-2" d="m511.47,229.78h-35.64v-126.5h35.64v12.32h-23.32v65.78h16.5v12.32h-16.5v23.76h23.32v12.32Z"/>
    </g>
    <path class="cls-2" d="m466.16,101.51c-4.25,46.61-22.08,163.15-25.74,209.75-3.96-46.6-21.78-163.15-26.18-209.75h11.88l14.08,146.32,14.08-146.32h11.88Z"/>
    <g>
      <path class="cls-1" d="m94.57,225.78h-35.64v-126.5h35.64v12.32h-23.32v65.78h16.5v12.32h-16.5v23.76h23.32v12.32Z"/>
      <path class="cls-1" d="m156.16,99.28l-16.06,63.14,16.06,63.14h-12.32l-9.9-38.5-9.68,38.5h-12.32l16.06-63.14-16.06-63.14h12.32l9.9,38.5,9.68-38.5h12.32Z"/>
      <path class="cls-1" d="m205.44,225.78h-35.64v-126.5h35.64v12.32h-23.32v65.78h16.5v12.32h-16.5v23.76h23.32v12.32Z"/>
      <path class="cls-1" d="m264.4,130.3l-12.32,14.52v-29.92c-.15-.29-.3-.55-.44-.77-.15-.22-.3-.47-.44-.77-.3-.44-.71-.8-1.23-1.1-.52-.29-.93-.51-1.23-.66h-10.27c-.3.15-.56.26-.78.33-.22.08-.48.19-.78.33l-1.12,1.1c-.15.3-.3.55-.44.77-.15.22-.22.48-.22.77v95.47c0,.44.41,1.07,1.22,1.88.82.81,1.52,1.21,2.12,1.21h10.25c.59,0,1.26-.41,2-1.22.74-.81,1.12-1.51,1.12-2.1v-20.35l12.54-15.71v36.74c0,.88-.29,2.09-.88,3.63-.59,1.54-1.03,2.46-1.32,2.75-1.62,2.35-3.23,4.11-4.84,5.28-1.62,1.18-3.19,2.02-4.73,2.53-1.54.52-3.05.77-4.51.77h-4.4c-2.79,0-5.5-.14-8.14-.44-2.64-.29-5.5-1.98-8.58-5.06-.88-1.17-1.54-2.2-1.98-3.08-.3-.58-.74-1.61-1.32-3.08-.59-1.46-.88-2.56-.88-3.3v-96.58c0-.29.07-.66.22-1.1.14-.44.22-.8.22-1.1.14-1.46.72-2.97,1.73-4.51,1.01-1.54,2.16-2.89,3.46-4.07,1.3-1.17,2.67-2.12,4.11-2.86,1.44-.73,2.74-1.1,3.9-1.1.15,0,.33-.03.55-.11.22-.07.48-.11.78-.11.89-.14,1.99-.18,3.33-.11,1.33.08,2.15.11,2.44.11h5.77c2.51,0,5.21.99,8.1,2.97,2.88,1.98,4.84,4.51,5.88,7.59.29.44.55,1.21.77,2.31.22,1.1.33,1.8.33,2.09v16.06Z"/>
      <path class="cls-1" d="m323.8,225.78h-26.04c-.3,0-.92-.14-1.86-.44-.95-.29-1.78-.51-2.51-.66-2.92-.88-5.4-2.86-7.44-5.94s-3.06-5.86-3.06-8.36v-111.32h12.32v111.1c0,.59.44,1.25,1.32,1.98.88.74,1.54,1.1,1.98,1.1h12.98v-114.18h12.32v126.72Z"/>
      <path class="cls-1" d="m378.58,111.38h-14.3v114.18h-12.32v-114.18h-14.52v-12.32h41.14v12.32Z"/>
      <path class="cls-1" d="m400.57,225.12h-12.32v-126.28h12.32v126.28Z"/>
      <path class="cls-1" d="m509.47,225.78h-35.64v-126.5h35.64v12.32h-23.32v65.78h16.5v12.32h-16.5v23.76h23.32v12.32Z"/>
    </g>
    <path class="cls-3" d="m464.16,97.51c-4.25,46.61-22.08,163.15-25.74,209.75-3.96-46.6-21.78-163.15-26.18-209.75h11.88l14.08,146.32,14.08-146.32h11.88Z"/>
    <g>
      <path class="cls-2" d="m318.07,277.42c.29-.04.51-.09.67-.13.96-.11,2.04-.53,3.21-1.25,1.2-.75,1.96-1.59,2.27-2.51.08-.12.15-.29.22-.5.1-.29.12-.41.12-.52v-28.97c0-.14-.04-.33-.24-.79-.13-.3-.22-.53-.29-.72-.16-.37-.43-.75-.84-1.15-.38-.38-.84-.73-1.36-1.03-.51-.3-1.04-.56-1.57-.76-.55-.21-1.08-.34-1.63-.4-.12,0-.33-.02-.62-.06-.36-.05-.61-.07-.76-.07h-11.55c-.28,0-.5.22-.5.5v37.95c0,.28.22.5.5.5h11.65c.15,0,.39-.02.71-.07Zm-.03-33.68v28.57s-.11.11-.3.23c-.28.17-.54.26-.78.26h-5.23v-29.56h5.23c.1,0,.33.04.74.27.26.15.33.23.34.23Z"/>
      <path class="cls-2" d="m365.37,259.79c.75-.34,1.46-.89,2.14-1.64.74-.83,1.11-1.58,1.11-2.28v-12.41c0-.14-.04-.33-.24-.79-.13-.3-.22-.53-.31-.76-.37-.7-1.09-1.38-2.21-2.07-1.08-.66-2.11-1.05-3.07-1.16-.16-.05-.4-.09-.73-.14-.36-.05-.61-.07-.76-.07h-9.18c-.28,0-.5.22-.5.5v37.88c0,.28.22.5.5.5h5.53c.28,0,.5-.22.5-.5v-16h.98l4.69,16.14c.06.21.26.36.48.36h5.5c.16,0,.31-.07.4-.2.09-.13.12-.29.08-.44l-4.9-16.93Zm-3.29-16.1v11.97s-.08.1-.28.21c-.29.16-.55.24-.8.24h-2.86v-12.93h2.96c.09,0,.29.04.66.28.24.16.31.25.32.23Z"/>
      <rect class="cls-2" x="392.29" y="238.41" width="6.53" height="38.88" rx=".5" ry=".5"/>
      <rect class="cls-2" x="474.76" y="238.41" width="6.53" height="38.88" rx=".5" ry=".5"/>
      <path class="cls-2" d="m527.01,238.61h-5.53c-.28,0-.5.22-.5.5v18.51l-6.23-18.67c-.07-.2-.26-.34-.47-.34h-5.63c-.28,0-.5.22-.5.5v37.88c0,.28.22.5.5.5h5.53c.28,0,.5-.22.5-.5v-18.58l6.43,18.75c.07.2.26.34.47.34h5.43c.28,0,.5-.22.5-.5v-37.88c0-.28-.22-.5-.5-.5Z"/>
      <path class="cls-2" d="m571.37,241.89c-.15-.33-.33-.58-.55-.75-.23-.38-.57-.72-1-1-1.51-.96-2.87-1.5-4.03-1.59-1.09-.09-2.32-.13-3.64-.13h-2.57s-.07,0-.11.01c-.16.04-.33.05-.53.06-.56.05-1.18.19-1.87.42-.68.23-1.33.54-1.94.9-.61.37-1.16.79-1.64,1.26-.53.52-.84,1.06-.93,1.67,0,0,0,.05-.06.18-.1.24-.14.37-.14.49v28.97c0,.18.07.38.21.64.08.15.08.21.09.31.08.46.35.91.81,1.38.41.42.9.81,1.44,1.16.54.34,1.1.64,1.67.89.59.26,1.15.42,1.71.47.17,0,.38.02.61.06.3.05.53.07.68.07h11.85c.28,0,.5-.22.5-.5v-15.58c0-.18-.1-.35-.26-.44-.12-.07-.27-.08-.4-.03l-8.83-2.58c-.15-.04-.31-.01-.44.08-.13.09-.2.24-.2.4v3.7c0,.22.15.42.36.48l4.98,1.45c-.19.15-.4.3-.63.46-.89.63-1.1.85-1.1,1.17v6.69h-5.5s-.19,0-.66-.27c-.27-.15-.34-.24-.34-.23v-28.45c.07-.06.15-.15.25-.26.1-.04.19-.09.27-.13.13-.04.24-.09.33-.13.04-.02.09-.03.22-.03.31-.04.72-.05,1.22-.03.55.02.89.03,1.02.03s.46,0,.97-.03c.47-.02.9-.01,1.33.03.02,0,.12,0,.37.1.15.06.25.13.33.23.06.09.13.17.2.24v6.86c0,.22.14.41.35.48l5.53,1.72c.15.04.32.02.45-.08.13-.09.2-.24.2-.4v-8.91c0-.13-.03-.3-.18-.72-.11-.31-.23-.57-.38-.78Z"/>
    </g>
  </g>
  <g>
    <path class="cls-2" d="m70.31,273.97c-1.23.96-2.85,1.44-4.85,1.44-1,0-1.91-.12-2.73-.34-.82-.23-1.52-.6-2.1-1.12-.59-.52-1.04-1.18-1.37-2-.33-.82-.49-1.81-.49-2.98v-7c0-1.43.26-2.55.77-3.37.52-.82,1.17-1.5,1.98-2.04-.8-.54-1.46-1.22-1.98-2.02s-.77-1.93-.77-3.39v-3.35c0-1.17.17-2.17.49-2.98.33-.82.79-1.48,1.37-2s1.29-.89,2.1-1.12c.82-.23,1.72-.34,2.73-.34,2,0,3.62.48,4.85,1.44s1.85,2.63,1.85,5v3.35c0,1.46-.26,2.6-.77,3.41-.52.82-1.17,1.48-1.98,2,.8.54,1.46,1.29,1.98,2.23.51.95.77,2.15.77,3.61v6.57c0,2.38-.62,4.04-1.85,5Zm-2.45-25.7c0-.6-.07-1.09-.21-1.46-.14-.37-.32-.66-.54-.86s-.47-.34-.75-.41c-.29-.07-.59-.11-.9-.11-.29,0-.58.04-.88.11-.3.07-.56.21-.77.41s-.39.49-.54.86c-.14.37-.21.86-.21,1.46v3.69c0,.6.07,1.07.21,1.42.14.34.32.61.54.79.21.19.47.3.77.34s.59.06.88.06c.32,0,.62-.02.9-.06.29-.04.54-.16.75-.34.21-.19.39-.45.54-.79.14-.34.21-.82.21-1.42v-3.69Zm0,13.31c0-.6-.07-1.09-.21-1.46-.14-.37-.32-.66-.54-.86s-.47-.34-.75-.41c-.29-.07-.59-.11-.9-.11-.29,0-.58.04-.88.11-.3.07-.56.21-.77.41s-.39.49-.54.86c-.14.37-.21.86-.21,1.46v6.91c0,.6.07,1.09.21,1.46.14.37.32.66.54.86s.47.34.77.41c.3.07.59.11.88.11.32,0,.62-.04.9-.11.29-.07.54-.21.75-.41s.39-.49.54-.86c.14-.37.21-.86.21-1.46v-6.91Z"/>
    <path class="cls-2" d="m90.15,255.14c-.43,1.1-.97,2.21-1.63,3.34-.66,1.13-1.37,2.26-2.15,3.39-.77,1.13-1.49,2.22-2.15,3.26-.66,1.04-1.22,2.02-1.67,2.94-.46.92-.72,1.73-.77,2.44h8.25v4.34h-12.62v-3.26c0-1.03.22-2.12.67-3.26.44-1.14,1.01-2.31,1.7-3.5.69-1.19,1.42-2.38,2.19-3.58.77-1.2,1.5-2.38,2.19-3.52.69-1.14,1.25-2.24,1.7-3.29.44-1.04.67-2,.67-2.86v-2.83c0-1.2-.25-2.05-.75-2.53-.5-.49-1.05-.73-1.65-.73s-1.15.24-1.65.73c-.5.49-.75,1.33-.75,2.53v4.04h-4.29v-4.51c0-2.38.62-4.12,1.85-5.22,1.23-1.1,2.85-1.65,4.85-1.65s3.62.56,4.85,1.67c1.23,1.12,1.85,2.84,1.85,5.19v3.77c0,.97-.21,2.01-.64,3.11Z"/>
    <path class="cls-2" d="m107.75,273.74c-1.23,1.12-2.85,1.67-4.85,1.67s-3.63-.55-4.87-1.65-1.87-2.84-1.87-5.22v-2.45h4.29v1.97c0,1.2.26,2.05.77,2.53.52.49,1.07.73,1.67.73s1.15-.24,1.65-.73c.5-.49.75-1.33.75-2.53v-7.73c0-1.2-.25-2.05-.75-2.53-.5-.49-1.05-.73-1.65-.73s-1.1.21-1.59.64c-.49.43-.76,1.16-.82,2.19h-4.34v-17.95h12.32v4.72h-8.03v9.4c.2-.23.41-.49.62-.77.21-.29.46-.56.75-.82s.62-.47,1.01-.64.84-.26,1.35-.26c1,0,1.85.09,2.53.28.69.19,1.25.51,1.67.97.43.46.74,1.07.92,1.85.19.77.28,1.75.28,2.92v8.93c0,2.35-.62,4.08-1.85,5.2Z"/>
    <path class="cls-2" d="m120.51,272.83c0,.83-.3,1.46-.9,1.89-.6.43-1.27.64-2.02.64-.34,0-.68-.08-1.01-.24-.33-.16-.62-.37-.88-.62-.26-.26-.46-.54-.6-.86-.14-.31-.21-.64-.21-.99,0-.89.29-1.56.88-2.02s1.27-.69,2.04-.69c.92,0,1.6.27,2.04.82.44.54.67,1.23.67,2.06Z"/>
    <path class="cls-2" d="m137.55,273.74c-1.23,1.12-2.85,1.67-4.85,1.67s-3.62-.55-4.85-1.65c-1.23-1.1-1.85-2.84-1.85-5.22v-2.45h4.29v1.97c0,1.2.25,2.05.75,2.53.5.49,1.05.73,1.65.73s1.15-.24,1.65-.73c.5-.49.75-1.33.75-2.53v-7.9c-.2.29-.41.58-.62.88s-.47.57-.75.82c-.29.24-.62.44-1.01.58-.39.14-.84.21-1.35.21-1,0-1.85-.09-2.53-.28-.69-.19-1.25-.51-1.67-.97-.43-.46-.74-1.07-.92-1.85-.19-.77-.28-1.75-.28-2.92v-8.29c0-2.35.62-4.08,1.85-5.2,1.23-1.12,2.85-1.67,4.85-1.67s3.63.55,4.87,1.65c1.25,1.1,1.87,2.84,1.87,5.22v20.18c0,2.35-.62,4.08-1.85,5.2Zm-3.22-27.44c-.51-.49-1.07-.73-1.67-.73s-1.15.24-1.65.73c-.5.49-.75,1.33-.75,2.53v7.09c0,1.2.25,2.05.75,2.53.5.49,1.05.73,1.65.73s1.15-.24,1.65-.73c.5-.49.75-1.33.75-2.53l.04-7.09c0-1.2-.26-2.05-.77-2.53Z"/>
    <path class="cls-2" d="m148.68,274.85h-4.55l8.8-28.56h-7.9v-4.34h12.75v2.41l-9.1,30.49Z"/>
    <path class="cls-2" d="m173.84,273.97c-1.23.96-2.85,1.44-4.85,1.44-1,0-1.91-.12-2.73-.34-.82-.23-1.52-.6-2.1-1.12-.59-.52-1.05-1.18-1.37-2-.33-.82-.49-1.81-.49-2.98v-4.64h4.29v4.17c0,.6.07,1.09.21,1.46.14.37.32.66.54.86s.47.34.77.41c.3.07.59.11.88.11.31,0,.62-.04.9-.11.29-.07.54-.21.75-.41s.39-.49.54-.86c.14-.37.21-.86.21-1.46v-5.62c0-.6-.14-1.09-.41-1.46-.27-.37-.6-.66-.99-.86s-.79-.34-1.2-.41c-.42-.07-.78-.11-1.09-.11-.14,0-.28,0-.41.02-.13.01-.27.04-.41.06v-4.55c.14.06.28.09.41.09h.41c.31,0,.68-.04,1.09-.11.42-.07.82-.21,1.2-.41.39-.2.72-.49.99-.86.27-.37.41-.86.41-1.46v-4.55c0-.6-.07-1.09-.21-1.46-.14-.37-.32-.66-.54-.86s-.47-.34-.75-.41c-.29-.07-.59-.11-.9-.11-.29,0-.58.04-.88.11-.3.07-.56.21-.77.41s-.39.49-.54.86c-.14.37-.21.86-.21,1.46v4.34h-4.21c-.03-.23-.05-.46-.06-.69-.01-.23-.02-.49-.02-.77v-3.35c0-1.17.16-2.17.49-2.98.33-.82.79-1.48,1.37-2,.59-.52,1.29-.89,2.1-1.12.82-.23,1.72-.34,2.73-.34,2,0,3.62.48,4.85,1.44,1.23.96,1.85,2.63,1.85,5v4.42c0,.72-.05,1.35-.15,1.89-.1.54-.3,1.02-.6,1.44s-.71.79-1.22,1.12c-.52.33-1.2.65-2.06.97.86.34,1.55.71,2.06,1.09s.92.81,1.22,1.27c.3.46.5.97.6,1.55.1.57.15,1.22.15,1.93v5.5c0,2.38-.62,4.04-1.85,5Z"/>
    <path class="cls-2" d="m186.68,272.83c0,.83-.3,1.46-.9,1.89-.6.43-1.27.64-2.02.64-.34,0-.68-.08-1.01-.24s-.62-.37-.88-.62c-.26-.26-.46-.54-.6-.86-.14-.31-.21-.64-.21-.99,0-.89.29-1.56.88-2.02.59-.46,1.27-.69,2.04-.69.92,0,1.6.27,2.04.82.44.54.67,1.23.67,2.06Z"/>
    <path class="cls-2" d="m203.73,273.74c-1.23,1.12-2.85,1.67-4.85,1.67s-3.62-.55-4.85-1.65c-1.23-1.1-1.85-2.84-1.85-5.22v-2.45h4.29v1.97c0,1.2.25,2.05.75,2.53.5.49,1.05.73,1.65.73s1.15-.24,1.65-.73c.5-.49.75-1.33.75-2.53v-7.9c-.2.29-.41.58-.62.88s-.47.57-.75.82c-.29.24-.62.44-1.01.58-.39.14-.84.21-1.35.21-1,0-1.85-.09-2.53-.28-.69-.19-1.25-.51-1.67-.97-.43-.46-.74-1.07-.92-1.85-.19-.77-.28-1.75-.28-2.92v-8.29c0-2.35.62-4.08,1.85-5.2,1.23-1.12,2.85-1.67,4.85-1.67s3.63.55,4.87,1.65c1.25,1.1,1.87,2.84,1.87,5.22v20.18c0,2.35-.62,4.08-1.85,5.2Zm-3.22-27.44c-.52-.49-1.07-.73-1.67-.73s-1.15.24-1.65.73c-.5.49-.75,1.33-.75,2.53v7.09c0,1.2.25,2.05.75,2.53.5.49,1.05.73,1.65.73s1.15-.24,1.65-.73c.5-.49.75-1.33.75-2.53l.04-7.09c0-1.2-.26-2.05-.77-2.53Z"/>
    <path class="cls-2" d="m223.01,273.97c-1.23.96-2.85,1.44-4.85,1.44-1,0-1.91-.12-2.73-.34-.82-.23-1.52-.6-2.1-1.12-.59-.52-1.04-1.18-1.37-2-.33-.82-.49-1.81-.49-2.98v-7c0-1.43.26-2.55.77-3.37.52-.82,1.17-1.5,1.98-2.04-.8-.54-1.46-1.22-1.98-2.02s-.77-1.93-.77-3.39v-3.35c0-1.17.17-2.17.49-2.98.33-.82.79-1.48,1.37-2s1.29-.89,2.1-1.12c.82-.23,1.72-.34,2.73-.34,2,0,3.62.48,4.85,1.44s1.85,2.63,1.85,5v3.35c0,1.46-.26,2.6-.77,3.41-.52.82-1.17,1.48-1.98,2,.8.54,1.46,1.29,1.98,2.23.51.95.77,2.15.77,3.61v6.57c0,2.38-.62,4.04-1.85,5Zm-2.45-25.7c0-.6-.07-1.09-.21-1.46-.14-.37-.32-.66-.54-.86s-.47-.34-.75-.41c-.29-.07-.59-.11-.9-.11-.29,0-.58.04-.88.11-.3.07-.56.21-.77.41s-.39.49-.54.86c-.14.37-.21.86-.21,1.46v3.69c0,.6.07,1.07.21,1.42.14.34.32.61.54.79.21.19.47.3.77.34s.59.06.88.06c.32,0,.62-.02.9-.06.29-.04.54-.16.75-.34.21-.19.39-.45.54-.79.14-.34.21-.82.21-1.42v-3.69Zm0,13.31c0-.6-.07-1.09-.21-1.46-.14-.37-.32-.66-.54-.86s-.47-.34-.75-.41c-.29-.07-.59-.11-.9-.11-.29,0-.58.04-.88.11-.3.07-.56.21-.77.41s-.39.49-.54.86c-.14.37-.21.86-.21,1.46v6.91c0,.6.07,1.09.21,1.46.14.37.32.66.54.86s.47.34.77.41c.3.07.59.11.88.11.32,0,.62-.04.9-.11.29-.07.54-.21.75-.41s.39-.49.54-.86c.14-.37.21-.86.21-1.46v-6.91Z"/>
    <path class="cls-2" d="m243.77,271.7c-.36.87-.85,1.58-1.48,2.13s-1.35.94-2.17,1.2c-.82.26-1.68.39-2.6.39s-1.78-.13-2.6-.39c-.82-.26-1.54-.67-2.17-1.22s-1.12-1.27-1.48-2.15c-.36-.87-.54-1.91-.54-3.11v-20.27c0-1.2.18-2.24.54-3.11.36-.87.85-1.59,1.48-2.15.63-.56,1.35-.97,2.17-1.22.82-.26,1.68-.39,2.6-.39,2.18,0,3.85.53,5.02,1.59,1.17,1.06,1.76,2.82,1.76,5.28v20.27c0,1.23-.18,2.28-.54,3.16Zm-3.84-22.87c0-1.2-.25-2.05-.75-2.53-.5-.49-1.05-.73-1.65-.73s-1.15.24-1.65.73c-.5.49-.75,1.33-.75,2.53v19.15c0,1.2.25,2.05.75,2.53.5.49,1.05.73,1.65.73s1.15-.24,1.65-.73c.5-.49.75-1.33.75-2.53v-19.15Z"/>
    <path class="cls-2" d="m263.35,271.7c-.36.87-.85,1.58-1.48,2.13-.63.54-1.35.94-2.17,1.2-.82.26-1.68.39-2.6.39s-1.78-.13-2.6-.39c-.82-.26-1.54-.67-2.17-1.22-.63-.56-1.12-1.27-1.48-2.15-.36-.87-.54-1.91-.54-3.11v-20.27c0-1.2.18-2.24.54-3.11.36-.87.85-1.59,1.48-2.15.63-.56,1.35-.97,2.17-1.22.82-.26,1.68-.39,2.6-.39,2.17,0,3.85.53,5.02,1.59,1.17,1.06,1.76,2.82,1.76,5.28v20.27c0,1.23-.18,2.28-.54,3.16Zm-3.84-22.87c0-1.2-.25-2.05-.75-2.53-.5-.49-1.05-.73-1.65-.73s-1.15.24-1.65.73c-.5.49-.75,1.33-.75,2.53v19.15c0,1.2.25,2.05.75,2.53.5.49,1.05.73,1.65.73s1.15-.24,1.65-.73c.5-.49.75-1.33.75-2.53v-19.15Z"/>
  </g>
</svg>